<?xml version="1.0" encoding="utf-8"?>
<svg viewBox="53.486 118.457 602.761 172.549" width="602.761" height="172.549" xmlns="http://www.w3.org/2000/svg">
  <g id="SvgjsG9611" featurekey="monogramFeature-0" transform="matrix(3.650146, 0, 0, 3.650146, 51.352505, 60.358978)" fill="#ffffff">
    <path d="M33.238 31.229 c0.99696 2.4762 1.5027 5.093 1.5027 7.7778 c0 11.576 -9.366 20.993 -20.879 20.993 l-6.7156 0 c-2.2861 0 -4.1464 -1.8598 -4.1464 -4.1464 l0 -33.578 c0 -2.3252 1.8211 -4.1464 4.1464 -4.1464 l6.7156 0 c5.3934 0 10.513 2.0554 14.416 5.7872 c0.40547 0.38771 0.41971 1.031 0.031992 1.4365 s-1.0305 0.42123 -1.437 0.031992 c-3.523 -3.3685 -8.1438 -5.2232 -13.012 -5.2232 l-6.7156 0 c-1.2048 0 -2.1139 0.90858 -2.1139 2.1139 l0 33.579 c0 1.1657 0.94818 2.1138 2.1138 2.1138 l6.7156 0 c10.391 0 18.846 -8.5056 18.846 -18.96 c0 -2.4239 -0.4558 -4.7852 -1.3552 -7.0188 c-0.20989 -0.52084 0.042656 -1.1128 0.56297 -1.3227 c0.52084 -0.20936 1.1128 0.043184 1.3227 0.56303 z M10.334 40.242999999999995 c0.56098 0 1.0163 0.45481 1.0163 1.0163 l0 10.39 l2.5123 0 c7.0218 -0.053848 12.529 -5.6063 12.529 -12.643 c0 -6.9084 -5.6206 -12.529 -12.529 -12.529 l-2.5123 0 l0 8.3752 c0 0.56098 -0.45527 1.0163 -1.0163 1.0163 s-1.0163 -0.45527 -1.0163 -1.0163 l0 -9.3914 c0 -0.56098 0.45527 -1.0163 1.0163 -1.0163 l3.5285 0 c8.0292 0 14.561 6.5322 14.561 14.561 c0 8.1666 -6.393 14.613 -14.554 14.675 l-3.5361 0 c-0.56098 0 -1.0163 -0.45527 -1.0163 -1.0163 l0 -11.407 c0 -0.56098 0.45527 -1.0163 1.0163 -1.0163 z" style="fill: rgb(0, 86, 210); stroke-linejoin: round; stroke-width: 0px;"/>
  </g>
  <path d="M 218.7410430908203 267 L 199.6931915283203 267 L 199.6931915283203 177.353515625 L 218.7410430908203 177.353515625 Z M 198.5584259033203 153.6044921875 Q 198.5584259033203 148.498046875 201.3548126220703 145.7421875 Q 204.1511993408203 142.986328125 209.3386993408203 142.986328125 Q 214.3640899658203 142.986328125 217.1604766845703 145.7421875 Q 219.9568634033203 148.498046875 219.9568634033203 153.6044921875 Q 219.9568634033203 158.4677734375 217.1604766845703 161.26416015625 Q 214.3640899658203 164.060546875 209.3386993408203 164.060546875 Q 204.1511993408203 164.060546875 201.3548126220703 161.26416015625 Q 198.5584259033203 158.4677734375 198.5584259033203 153.6044921875 Z M 265.3728790283203 219.6640625 L 276.1531524658203 206.208984375 L 303.2254180908203 177.353515625 L 325.1912384033203 177.353515625 L 289.1219024658203 215.8544921875 L 327.4607696533203 267 L 305.0896759033203 267 L 276.3152618408203 227.6884765625 L 265.8592071533203 236.2802734375 L 265.8592071533203 267 L 246.9734649658203 267 L 246.9734649658203 140.87890625 L 265.8592071533203 140.87890625 L 265.8592071533203 202.3994140625 L 264.8865509033203 219.6640625 Z M 382.033935546875 268.62109375 Q 361.121826171875 268.62109375 349.328369140625 256.42236328125 Q 337.534912109375 244.2236328125 337.534912109375 222.8251953125 Q 337.534912109375 200.859375 348.477294921875 188.2958984375 Q 359.419677734375 175.732421875 378.548583984375 175.732421875 Q 396.299560546875 175.732421875 406.593505859375 186.5126953125 Q 416.887451171875 197.29296875 416.887451171875 216.1787109375 L 416.887451171875 226.47265625 L 357.150146484375 226.47265625 Q 357.555419921875 239.5224609375 364.201904296875 246.53369140625 Q 370.848388671875 253.544921875 382.925537109375 253.544921875 Q 390.868896484375 253.544921875 397.718017578125 252.04541015625 Q 404.567138671875 250.5458984375 412.429443359375 247.060546875 L 412.429443359375 262.5419921875 Q 405.458740234375 265.865234375 398.325927734375 267.2431640625 Q 391.193115234375 268.62109375 382.033935546875 268.62109375 Z M 378.548583984375 190.16015625 Q 369.470458984375 190.16015625 363.999267578125 195.9150390625 Q 358.528076171875 201.669921875 357.474365234375 212.693359375 L 398.163818359375 212.693359375 Q 398.001708984375 201.5888671875 392.814208984375 195.87451171875 Q 387.626708984375 190.16015625 378.548583984375 190.16015625 Z M 458.5728759765625 267 L 439.5250244140625 267 L 439.5250244140625 140.87890625 L 458.5728759765625 140.87890625 Z M 542.8951416015625 267 L 539.0855712890625 254.517578125 L 538.4371337890625 254.517578125 Q 531.9527587890625 262.7041015625 525.3873291015625 265.66259765625 Q 518.8218994140625 268.62109375 508.5279541015625 268.62109375 Q 495.3160400390625 268.62109375 487.8995361328125 261.48828125 Q 480.4830322265625 254.35546875 480.4830322265625 241.3056640625 Q 480.4830322265625 227.4453125 490.7769775390625 220.3935546875 Q 501.0709228515625 213.341796875 522.1451416015625 212.693359375 L 537.6265869140625 212.20703125 L 537.6265869140625 207.4248046875 Q 537.6265869140625 198.8330078125 533.6143798828125 194.57763671875 Q 529.6021728515625 190.322265625 521.1724853515625 190.322265625 Q 514.2828369140625 190.322265625 507.9605712890625 192.3486328125 Q 501.6383056640625 194.375 495.8023681640625 197.130859375 L 489.6422119140625 183.513671875 Q 496.9371337890625 179.7041015625 505.6099853515625 177.71826171875 Q 514.2828369140625 175.732421875 521.9830322265625 175.732421875 Q 539.0855712890625 175.732421875 547.7989501953125 183.189453125 Q 556.5123291015625 190.646484375 556.5123291015625 206.6142578125 L 556.5123291015625 267 Z M 514.5260009765625 254.03125 Q 524.9010009765625 254.03125 531.1827392578125 248.23583984375 Q 537.4644775390625 242.4404296875 537.4644775390625 231.984375 L 537.4644775390625 224.203125 L 525.9547119140625 224.689453125 Q 512.4996337890625 225.17578125 506.3800048828125 229.18798828125 Q 500.2603759765625 233.2001953125 500.2603759765625 241.4677734375 Q 500.2603759765625 247.4658203125 503.8267822265625 250.74853515625 Q 507.3931884765625 254.03125 514.5260009765625 254.03125 Z M 644.31787109375 241.4677734375 Q 644.31787109375 254.5986328125 634.75341796875 261.60986328125 Q 625.18896484375 268.62109375 607.35693359375 268.62109375 Q 589.44384765625 268.62109375 578.58251953125 263.1904296875 L 578.58251953125 246.736328125 Q 594.38818359375 254.03125 608.00537109375 254.03125 Q 625.59423828125 254.03125 625.59423828125 243.4130859375 Q 625.59423828125 240.0087890625 623.64892578125 237.7392578125 Q 621.70361328125 235.4697265625 617.24560546875 233.0380859375 Q 612.78759765625 230.6064453125 604.84423828125 227.5263671875 Q 589.36279296875 221.5283203125 583.8916015625 215.5302734375 Q 578.42041015625 209.5322265625 578.42041015625 199.9677734375 Q 578.42041015625 188.4580078125 587.701171875 182.09521484375 Q 596.98193359375 175.732421875 612.94970703125 175.732421875 Q 628.75537109375 175.732421875 642.85888671875 182.1357421875 L 636.69873046875 196.482421875 Q 622.18994140625 190.484375 612.30126953125 190.484375 Q 597.22509765625 190.484375 597.22509765625 199.076171875 Q 597.22509765625 203.291015625 601.15625 206.208984375 Q 605.08740234375 209.126953125 618.29931640625 214.2333984375 Q 629.40380859375 218.529296875 634.42919921875 222.095703125 Q 639.45458984375 225.662109375 641.88623046875 230.32275390625 Q 644.31787109375 234.9833984375 644.31787109375 241.4677734375 Z" transform="matrix(1, 0, 0, 1, 0, 0)" style="fill: rgb(0, 86, 210); paint-order: fill; stroke-linecap: square; stroke-linejoin: round; stroke-width: 0px; text-transform: lowercase; white-space: pre;"/>
</svg>